<svg xmlns="http://www.w3.org/2000/svg" width="24px" height="24px" viewBox="0 0 24 24"><path fill="#4a4a4a" d="M8.463 18.389a.75.75 0 0 1 .575.042 7.632 7.632 0 0 0 3.462.819 7.751 7.751 0 0 0 6.93-4.288 7.63 7.63 0 0 0 .82-3.46l.001-.46C20.034 7.106 16.893 3.965 13 3.75h-.502a7.633 7.633 0 0 0-3.463.82 7.75 7.75 0 0 0-4.285 6.932 7.63 7.63 0 0 0 .82 3.46.75.75 0 0 1 .042.575l-1.426 4.277 4.277-1.425zm12.308-2.754a9.25 9.25 0 0 1-8.269 5.115 9.13 9.13 0 0 1-3.854-.842l-5.41 1.804a.75.75 0 0 1-.95-.95l1.804-5.41A9.128 9.128 0 0 1 3.25 11.5a9.249 9.249 0 0 1 5.112-8.27 9.128 9.128 0 0 1 4.138-.98l.541.001c4.698.26 8.449 4.01 8.709 8.749v.5a9.127 9.127 0 0 1-.98 4.135z"></path></svg>